<svg xmlns="http://www.w3.org/2000/svg" version="1.1" xmlns:xlink="http://www.w3.org/1999/xlink" xmlns:svgjs="http://svgjs.com/svgjs" width="1920" height="1080" preserveAspectRatio="none" viewBox="0 0 1920 1080"><g mask="url(&quot;#SvgjsMask1005&quot;)" fill="none"><rect width="1920" height="1080" x="0" y="0" fill="rgba(59, 59, 59, 1)"></rect><path d="M416 92L415 451" stroke-width="6" stroke="url(#SvgjsLinearGradient1006)" stroke-linecap="round" class="Up"></path><path d="M64 461L63 173" stroke-width="10" stroke="url(#SvgjsLinearGradient1007)" stroke-linecap="round" class="Down"></path><path d="M149 536L148 941" stroke-width="8" stroke="url(#SvgjsLinearGradient1006)" stroke-linecap="round" class="Up"></path><path d="M1500 979L1499 1327" stroke-width="8" stroke="url(#SvgjsLinearGradient1007)" stroke-linecap="round" class="Down"></path><path d="M1447 353L1446 -185" stroke-width="6" stroke="url(#SvgjsLinearGradient1007)" stroke-linecap="round" class="Down"></path><path d="M97 849L96 1556" stroke-width="8" stroke="url(#SvgjsLinearGradient1006)" stroke-linecap="round" class="Up"></path><path d="M699 751L698 1256" stroke-width="6" stroke="url(#SvgjsLinearGradient1006)" stroke-linecap="round" class="Up"></path><path d="M1798 14L1797 428" stroke-width="8" stroke="url(#SvgjsLinearGradient1007)" stroke-linecap="round" class="Down"></path><path d="M1513 582L1512 123" stroke-width="10" stroke="url(#SvgjsLinearGradient1007)" stroke-linecap="round" class="Down"></path><path d="M1168 745L1167 77" stroke-width="6" stroke="url(#SvgjsLinearGradient1006)" stroke-linecap="round" class="Up"></path><path d="M197 715L196 1119" stroke-width="8" stroke="url(#SvgjsLinearGradient1007)" stroke-linecap="round" class="Down"></path><path d="M155 685L154 1429" stroke-width="6" stroke="url(#SvgjsLinearGradient1006)" stroke-linecap="round" class="Up"></path><path d="M1475 623L1474 -164" stroke-width="10" stroke="url(#SvgjsLinearGradient1007)" stroke-linecap="round" class="Down"></path><path d="M1731 118L1730 -173" stroke-width="6" stroke="url(#SvgjsLinearGradient1007)" stroke-linecap="round" class="Down"></path><path d="M309 810L308 1296" stroke-width="10" stroke="url(#SvgjsLinearGradient1006)" stroke-linecap="round" class="Up"></path><path d="M1259 504L1258 148" stroke-width="8" stroke="url(#SvgjsLinearGradient1006)" stroke-linecap="round" class="Up"></path><path d="M1629 635L1628 77" stroke-width="10" stroke="url(#SvgjsLinearGradient1006)" stroke-linecap="round" class="Up"></path><path d="M113 16L112 485" stroke-width="6" stroke="url(#SvgjsLinearGradient1006)" stroke-linecap="round" class="Up"></path><path d="M931 297L930 -428" stroke-width="6" stroke="url(#SvgjsLinearGradient1006)" stroke-linecap="round" class="Up"></path><path d="M504 606L503 935" stroke-width="10" stroke="url(#SvgjsLinearGradient1006)" stroke-linecap="round" class="Up"></path><path d="M1598 141L1597 645" stroke-width="6" stroke="url(#SvgjsLinearGradient1006)" stroke-linecap="round" class="Up"></path><path d="M136 339L135 -335" stroke-width="8" stroke="url(#SvgjsLinearGradient1007)" stroke-linecap="round" class="Down"></path><path d="M1527 981L1526 532" stroke-width="8" stroke="url(#SvgjsLinearGradient1006)" stroke-linecap="round" class="Up"></path><path d="M312 197L311 895" stroke-width="10" stroke="url(#SvgjsLinearGradient1006)" stroke-linecap="round" class="Up"></path><path d="M866 650L865 -69" stroke-width="10" stroke="url(#SvgjsLinearGradient1006)" stroke-linecap="round" class="Up"></path><path d="M1440 190L1439 526" stroke-width="10" stroke="url(#SvgjsLinearGradient1007)" stroke-linecap="round" class="Down"></path><path d="M604 1024L603 1448" stroke-width="10" stroke="url(#SvgjsLinearGradient1006)" stroke-linecap="round" class="Up"></path><path d="M338 257L337 762" stroke-width="8" stroke="url(#SvgjsLinearGradient1007)" stroke-linecap="round" class="Down"></path><path d="M1209 613L1208 1328" stroke-width="6" stroke="url(#SvgjsLinearGradient1006)" stroke-linecap="round" class="Up"></path><path d="M696 137L695 428" stroke-width="8" stroke="url(#SvgjsLinearGradient1006)" stroke-linecap="round" class="Up"></path><path d="M1665 1073L1664 1460" stroke-width="8" stroke="url(#SvgjsLinearGradient1006)" stroke-linecap="round" class="Up"></path><path d="M1705 95L1704 666" stroke-width="8" stroke="url(#SvgjsLinearGradient1007)" stroke-linecap="round" class="Down"></path><path d="M840 731L839 1458" stroke-width="8" stroke="url(#SvgjsLinearGradient1007)" stroke-linecap="round" class="Down"></path><path d="M562 747L561 414" stroke-width="6" stroke="url(#SvgjsLinearGradient1007)" stroke-linecap="round" class="Down"></path><path d="M116 1043L115 1378" stroke-width="10" stroke="url(#SvgjsLinearGradient1006)" stroke-linecap="round" class="Up"></path><path d="M543 734L542 1063" stroke-width="6" stroke="url(#SvgjsLinearGradient1007)" stroke-linecap="round" class="Down"></path><path d="M1073 738L1072 443" stroke-width="10" stroke="url(#SvgjsLinearGradient1007)" stroke-linecap="round" class="Down"></path><path d="M169 284L168 -523" stroke-width="8" stroke="url(#SvgjsLinearGradient1006)" stroke-linecap="round" class="Up"></path><path d="M695 899L694 1388" stroke-width="10" stroke="url(#SvgjsLinearGradient1006)" stroke-linecap="round" class="Up"></path><path d="M573 972L572 497" stroke-width="10" stroke="url(#SvgjsLinearGradient1006)" stroke-linecap="round" class="Up"></path><path d="M1190 880L1189 272" stroke-width="8" stroke="url(#SvgjsLinearGradient1007)" stroke-linecap="round" class="Down"></path><path d="M1878 500L1877 153" stroke-width="10" stroke="url(#SvgjsLinearGradient1006)" stroke-linecap="round" class="Up"></path><path d="M1878 473L1877 126" stroke-width="6" stroke="url(#SvgjsLinearGradient1007)" stroke-linecap="round" class="Down"></path><path d="M1323 638L1322 -96" stroke-width="8" stroke="url(#SvgjsLinearGradient1007)" stroke-linecap="round" class="Down"></path><path d="M1049 902L1048 285" stroke-width="10" stroke="url(#SvgjsLinearGradient1007)" stroke-linecap="round" class="Down"></path><path d="M1144 1051L1143 1577" stroke-width="6" stroke="url(#SvgjsLinearGradient1006)" stroke-linecap="round" class="Up"></path><path d="M674 882L673 125" stroke-width="8" stroke="url(#SvgjsLinearGradient1007)" stroke-linecap="round" class="Down"></path><path d="M748 815L747 212" stroke-width="6" stroke="url(#SvgjsLinearGradient1007)" stroke-linecap="round" class="Down"></path></g><defs><mask id="SvgjsMask1005"><rect width="1920" height="1080" fill="#ffffff"></rect></mask><linearGradient x1="0%" y1="100%" x2="0%" y2="0%" id="SvgjsLinearGradient1006"><stop stop-color="rgba(137, 13, 198, 0)" offset="0"></stop><stop stop-color="rgba(137, 13, 198, 1)" offset="1"></stop></linearGradient><linearGradient x1="0%" y1="0%" x2="0%" y2="100%" id="SvgjsLinearGradient1007"><stop stop-color="rgba(137, 13, 198, 0)" offset="0"></stop><stop stop-color="rgba(137, 13, 198, 1)" offset="1"></stop></linearGradient></defs></svg>